# xmcd
#
# Track frame offsets: 
#        150
#        13960
#        27345
#        46535
#        66865
#        81452
#        96707
#        107205
#        119947
#        136437
#        150720
#        164760
#        178825
#        195685
#        211440
#        225837
#        241412
#
# Disc length: 3421 seconds
#
# Revision: 2
# Processed by: cddbd v1.4PL0 Copyright (c) Steve Scherf et al.
# Submitted via: ExactAudioCopy v0.90b3
#
DISCID=fc0d5b11
DTITLE=Kris Kristofferson - Singer-Songwriter - Disc 1
DYEAR=1900
DGENRE=Country
TTITLE0=Jody And The Kid
TTITLE1=From The Bottle To The Bottom
TTITLE2=Me And Bobby McGee
TTITLE3=Sunday Mornin' Comin' Down
TTITLE4=The Taker
TTITLE5=For The Good Times
TTITLE6=Help Me Make It Through The Night
TTITLE7=Once More With Feeling
TTITLE8=Come Sundown
TTITLE9=I'd Rather Be Sorry (With Rita Coolidge)
TTITLE10=Nobody Wins
TTITLE11=Stranger
TTITLE12=Loving Her Was Easier (Than Anything I'll Ever Do Again)
TTITLE13=If You Don't Like Hank Williams
TTITLE14=Josie
TTITLE15=Why Me
TTITLE16=They Killed Him (With The Tennessee Police Choir)
EXTD=
EXTT0=
EXTT1=
EXTT2=
EXTT3=
EXTT4=
EXTT5=
EXTT6=
EXTT7=
EXTT8=
EXTT9=
EXTT10=
EXTT11=
EXTT12=
EXTT13=
EXTT14=
EXTT15=
EXTT16=
PLAYORDER=
